<?xml version="1.0" encoding="UTF-8"?>
<svg xmlns="http://www.w3.org/2000/svg" version="1.1" viewBox="0 0 600 600">
  <defs>
    <style>
      .cls-1 {
        fill: #002f8e;
      }
    </style>
  </defs>
  <!-- Generator: Adobe Illustrator 28.7.2, SVG Export Plug-In . SVG Version: 1.2.0 Build 154)  -->
  <g>
    <g id="Layer_1">
      <g id="Layer_1-2" data-name="Layer_1">
        <g id="Layer_1-2">
          <g>
            <g>
              <path class="cls-1" d="M381,50c2.5,3.5,0,8.3-4.2,8.3s0,0-.1,0h-196.2c-7.9,0-14,2.8-17.9,9.8-.4.6-.6,1.4-.7,2.1,0,.3,0,.7.2,1.9h-.1c0-.1,279.4-.1,279.4-.1,5.2,0,9.5,4.3,9.5,9.5v222.4c-.2,3.6,1.1,8.7-4.5,8.6-5.2,0-4.2-4.9-4.2-8.4V80.8H161c-.1,2.7-.4,5.2-.4,7.8v282.6c0,2.1.4,4.4-.4,6.2-.7,1.6-2.8,3.6-4.2,3.5-1.4,0-3.1-2.3-3.8-3.9-.7-1.4-.2-3.4-.2-5.1,0-98.4,0-196.7-.1-295.1,0-15.4,11.3-27.3,26.8-27.3,66.2,0,135.9.2,202.1.2l.2.3Z"/>
              <path class="cls-1" d="M156,382.7h-.1c-2.5,0-4.6-3.3-5.4-4.9-.7-1.4-.5-3-.4-4.4v-28.2c0-89.4,0-178.9-.1-268.3,0-16.5,12.2-29,28.5-29h198.5c2.5,0,5.1.2,6.8,1.9,1,1,1.5,2.4,1.5,4.2,0,6.2-5.6,6.2-8.8,6.2h-196.2c-7.7,0-12.9,2.8-16.3,8.9-.2.4-.4.9-.5,1.4h277.9c10.4,0,11.3.8,11.3,11.3v224.4c0,2.3,0,5-1.7,6.7s-2.7,1.6-4.6,1.6-3.4-.6-4.4-1.7c-1.8-1.9-1.7-4.6-1.6-7V82.6H162.6v.9c-.1,1.8-.2,3.4-.2,5.1v284.1c0,1.7.2,3.7-.6,5.4-.8,1.9-3.3,4.6-5.7,4.6h-.1ZM285.6,51.2h-107c-14.3,0-25,11-25,25.5,0,89.4,0,178.9.1,268.3v28.4c0,1-.2,2.1.1,2.7.7,1.5,1.9,2.8,2.4,2.9.5,0,1.9-1.3,2.5-2.5.4-1,.4-2.3.3-3.8V88.4c0-1.8.1-3.6.2-5.3,0-.8.1-1.7.1-2.5v-1.7h284.7v226.4c0,1.7-.1,3.7.6,4.5.3.4,1,.6,1.9.6s1.7-.2,2.1-.5c.7-.7.7-2.6.6-4.2V81.2c0-3.7,0-6.4-.7-7.1s-3.4-.7-7.1-.7H160.5l-.2-1.5c0-.4-.1-.7-.2-.9,0-.5-.2-1,0-1.6.2-.8.4-1.7.9-2.6,4-7.2,10.3-10.7,19.4-10.7h196.2c4.4,0,5.3-.5,5.3-2.7s-.4-1.6-.5-1.7c-.8-.8-2.6-.9-4.3-.9h-91.5v.4h0Z"/>
            </g>
            <g>
              <path class="cls-1" d="M376.3,179.2c-.3,41.6-34.2,75.2-75.7,74.7-39-.5-73.8-30.7-74.2-75.1-.3-41.5,34.4-75,75.7-74.7,40.8.3,74.4,34.4,74.1,75.1h.1ZM269.8,174.2h63.1c-1.7-8.2-3.2-15.9-5.2-23.5-.3-1.2-2.7-2.5-4.1-2.5-14.8-.2-29.5-.2-44.3,0-1.5,0-4.1,1.6-4.4,2.9-1.9,7.4-3.3,15-5.1,23.1ZM269.9,183.7c1.7,8.1,3.1,15.6,5,23.1.3,1.3,2.9,2.9,4.4,2.9,14.8.2,29.5.2,44.3,0,1.4,0,3.8-1.4,4.1-2.5,1.9-7.6,3.4-15.3,5.2-23.5h-63.1.1ZM234.2,174.6h24.6c1.1,0,3-1.2,3.2-2.1,1.4-7.9,2.5-15.9,3.7-24.2-6.6,0-13.2-.2-19.8.2-1.6,0-3.9,1.8-4.4,3.2-2.6,7.2-4.6,14.6-7.3,23.1v-.2h0ZM265.8,209.8c-1.6-9.1-3-17.6-4.5-26.1h-27.1c2.7,8.4,5,16.1,7.6,23.6.4,1.1,2.1,2.4,3.3,2.4,6.9.2,13.9.1,20.8.1h-.1ZM368.6,174.3c-2.8-8.6-5.2-16.4-7.8-24.1-.3-.9-1.9-1.9-3-1.9-6.9-.2-13.9,0-20.8,0,1.6,9,3,17.5,4.5,26.1h27.1,0ZM337,209.8h20.9c1,0,2.7-1,3-1.9,2.7-7.7,5.1-15.5,7.8-24h-27.1c-1.5,8.8-3,17.2-4.5,26h0ZM322.8,139c-4.9-9.9-11.4-17.6-19.6-23.8-.8-.6-2.7-.7-3.4-.2-8.4,6.2-14.8,14.1-20.1,24h43.1ZM280.9,218.9c-.5.6-1,1.1-1.5,1.7,7,8.1,13.9,16.2,20.7,24.1,10.2-6.5,19.5-17.7,22-25.8h-41.2ZM354.4,139.3c-10.4-12.8-22-20.7-36.6-24.3,4.8,7.7,9.4,15,14.1,22.2.7,1,2.3,2,3.5,2,5.8.2,11.6,0,18.9,0h.1ZM354.2,218.6h-18.5c-1.2,0-2.8.5-3.4,1.3-4.9,7.4-9.6,15-14.6,23,14.7-4,26.5-11.6,36.5-24.4h0ZM285,115c-14.7,3.7-26.3,11.6-36.5,24.3h19.7c.9,0,2-1,2.5-1.8,4.7-7.3,9.3-14.6,14.2-22.4h0ZM248.4,218.7c10.4,12.7,21.9,20.5,36.6,24.4-5-8-9.7-15.4-14.5-22.7-.6-.9-2.1-1.5-3.2-1.6-5.8-.2-11.6,0-18.9,0h0Z"/>
              <path class="cls-1" d="M301.7,254.7h-1.1c-41.7-.6-74.7-33.9-75-76-.2-19.9,7.6-38.8,21.9-53.1,14.4-14.5,34.4-22.7,54.7-22.5,40.9.3,75.3,35.1,75,76h-.9.9c-.1,20.5-8.3,39.7-22.9,54-14.2,13.9-32.8,21.5-52.6,21.5h0ZM301.6,105c-19.7,0-38.9,8-52.9,22s-21.6,32.4-21.4,51.8c.4,45.8,37.6,73.7,73.3,74.2,19.6.3,38.3-7.2,52.4-21,14.3-14,22.2-32.7,22.4-52.8.3-39.9-33.3-73.9-73.3-74.2h-.5ZM300,245.8l-21.7-25.2,2.3-2.6h42.8l-.3,1.1c-2.6,8.5-12.2,19.8-22.4,26.3l-.6.4h0ZM280.6,220.6l19.7,22.9c9-5.9,17.7-16,20.6-23.8h-39.6l-.7.8h0ZM315.8,244.5l4.7-7.5c3.8-6.1,7.4-11.8,11.1-17.5.8-1.2,2.9-1.7,4.1-1.7h20.4l-1.1,1.4c-10,12.8-21.7,20.6-37,24.7l-2.2.6ZM344,219.5h-8.3c-1.1,0-2.3.5-2.6.9-3.7,5.7-7.3,11.4-11.1,17.4l-2.3,3.6c13.2-4,23.7-11,32.7-22.1h-8.5v.2h0ZM287,244.4l-2.2-.6c-14.7-3.8-26.5-11.7-37.1-24.7l-1.2-1.4h20.9c1.3,0,3.2.8,3.9,2,3.7,5.6,7.3,11.3,11,17.3l4.6,7.3h.1ZM250.3,219.5c9.5,11.2,20,18.3,32.8,22l-2.2-3.5c-3.8-6-7.3-11.7-11-17.3-.4-.6-1.6-1.1-2.5-1.2-4.2-.1-8.5-.1-13.3,0h-3.8,0ZM301.5,210.8c-7.6,0-14.9,0-22.2-.2-1.9,0-4.8-1.8-5.3-3.6-1.4-5.5-2.6-11.1-3.8-16.9-.4-2-.8-4.1-1.3-6.2l-.2-1.1h65.2l-.2,1.1c-.4,2-.9,4-1.3,6-1.3,6.1-2.5,11.8-3.9,17.5-.4,1.7-3.4,3.2-5,3.2-7.7,0-15,.1-22.2.1h.2,0ZM270.9,184.6c.4,1.7.7,3.4,1.1,5.1,1.2,5.9,2.3,11.4,3.8,16.9.2.8,2.3,2.2,3.6,2.3,14.1.2,28.5.2,44.3,0,1.2,0,3.1-1.2,3.3-1.9,1.5-5.7,2.6-11.4,3.9-17.4.3-1.6.7-3.3,1-5h-61,0ZM255.5,210.7c-3.5,0-7,0-10.5-.1-1.5,0-3.6-1.6-4.1-3-2-5.7-3.8-11.5-5.7-17.6l-2.3-7.2h29.1l4.8,27.9h-11.4.1ZM235.4,184.6l1.6,4.9c1.9,6.1,3.7,11.8,5.7,17.5.3.7,1.7,1.8,2.5,1.8,5.2.2,10.5.1,15.6.1h4.2l-4.2-24.4h-25.4ZM347.2,210.7h-11.3l4.8-27.8h29l-2.2,7c-2,6.3-3.9,12.2-5.9,18.1-.5,1.3-2.5,2.5-3.8,2.5-3.5,0-7.1.1-10.6.1h0ZM338,209h19.8c.8,0,2-.9,2.2-1.4,2-5.9,3.9-11.8,5.9-18.1l1.5-4.7h-25.2l-4.2,24.3h0ZM247,175.5h-14l.3-1.1c.7-2.3,1.4-4.5,2-6.6,1.7-5.8,3.4-11.3,5.3-16.6.6-1.8,3.2-3.7,5.2-3.8,4.8-.3,9.7-.2,14.5-.2h6.3l-1,6.7c-.9,6.4-1.8,12.5-2.9,18.6-.3,1.5-2.7,2.8-4,2.9-3.9,0-7.7.1-11.8.1h.1ZM235.4,173.7h5.7c6.5,0,12,0,17.6-.1.8,0,2.2-1,2.3-1.4,1.1-6.1,1.9-12.1,2.9-18.5l.7-4.7h-4.3c-4.7,0-9.6,0-14.4.2-1.2,0-3.2,1.5-3.6,2.6-1.9,5.3-3.5,10.7-5.3,16.5-.5,1.8-1.1,3.6-1.7,5.5h.1ZM369.8,175.1h-29l-4.8-27.9h21.9c1.3,0,3.3,1.2,3.8,2.5,2,5.9,3.9,11.9,6,18.2l2.3,7.1h-.2,0ZM342.2,173.4h25.2l-1.5-4.8c-2-6.3-3.9-12.3-5.9-18.2-.2-.5-1.4-1.3-2.2-1.3-5.2-.1-10.5-.1-15.7,0h-4.1l4.2,24.4h0ZM334,175.1h-65.3l.2-1.1c.4-2.1.9-4.1,1.3-6.1,1.2-5.9,2.4-11.4,3.8-17,.5-1.8,3.4-3.5,5.3-3.6,14.1-.2,28.6-.2,44.3,0,1.6,0,4.5,1.5,5,3.2,1.5,5.7,2.6,11.4,3.9,17.5.4,2,.8,4,1.3,6.1l.2,1.1h0ZM270.9,173.4h60.9c-.4-1.7-.7-3.4-1-5-1.3-6-2.4-11.7-3.9-17.4-.2-.6-2.1-1.8-3.3-1.9-15.7-.2-30.2-.2-44.3,0-1.3,0-3.4,1.4-3.6,2.3-1.4,5.5-2.6,11-3.8,16.9-.3,1.7-.7,3.4-1.1,5.1h0ZM343.9,140.2c-2.9,0-5.7,0-8.4-.1-1.5,0-3.4-1.1-4.2-2.4-3.6-5.4-7-10.8-10.6-16.6l-4.7-7.5,2.1.5c14.5,3.6,26.3,11.4,37.1,24.6l1.2,1.4h-12.5ZM319.7,116.4l2.4,3.7c3.6,5.7,7,11.1,10.6,16.5.5.8,1.9,1.6,2.8,1.6,4.2.2,8.3.1,13.2.1h3.9c-9.6-11.4-20.1-18.4-32.8-22h-.1ZM258.5,140.2h-11.9l1.2-1.4c10.5-13,22.2-20.8,37-24.6l2.1-.5-4.5,7.2c-3.7,5.9-7.3,11.5-10.9,17.1-.7,1-2,2.1-3.2,2.2h-9.8ZM250.3,138.4h17.9c.5,0,1.4-.7,1.8-1.4,3.6-5.6,7.2-11.2,10.9-17.1l2.2-3.4c-12.8,3.7-23.3,10.7-32.7,22h-.1ZM324.3,139.9h-45.9l.7-1.3c5.5-10.4,12.2-18.3,20.3-24.3,1.1-.8,3.5-.6,4.5.2,8.5,6.6,15,14.5,19.8,24.1l.6,1.3ZM281.3,138.2h40.1c-4.6-8.8-10.7-16.1-18.7-22.3-.5-.4-2-.5-2.4-.2-7.7,5.7-13.8,12.8-19.1,22.4h.1Z"/>
            </g>
            <g>
              <path class="cls-1" d="M485.6,360.7c-2.8-9.4-17.8-14-27.2-6.7-3.1,2.4-6,5.2-9,7.9-3.4,3.2-6,3-8.6-1.2-6.9-11.2-17.7-13.5-28.6-6.3-2.6,1.8-5.6,3.2-7.1-.2-.7-1.7.7-5.5,2.4-6.9,9.8-8.2,25.1-7.3,34.9,1.5,1.2,1.1,1.9,2.8,2.7,3.9,24-15.3,34.1-14.6,48.9,2.9,3.3-1.9,6.7-3.8,10.2-5.7,14.1-7.6,30.3-3.3,38,10.1,7.5,13.1,3.4,29.6-10.2,37.5-33.6,19.7-67.4,39.2-101.4,58.4-5.3,3-11.8,4.1-17.7,5.7-53.3,15.1-106.7,30.2-160,45.1-3.8,1.1-7.8,1.6-11.7,1.7-25.6.1-51.2,0-76.8,0s-3.7.4-5-.3c-1.4-.8-3.1-2.6-3.1-4s1.6-3.3,3-4.1c1.3-.7,3.3-.4,5-.4h77.3c3,0,6.1-.4,8.9-1.2,56.8-16,113.6-32,170.3-48.1,2.7-.8,5.4-1.8,7.9-3.2,32.5-18.7,64.9-37.4,97.4-56.2,8.1-4.7,12-12,10.9-19.5-2.1-14-16.3-20.9-28.9-13.8-20.1,11.4-40,23.1-60,34.6-10.8,6.2-21.7,12.5-32.5,18.7-2.9,1.7-6,3.7-8.3-.4-2.2-4.1,1.4-5.7,4.1-7.3,22.5-13,44.9-25.9,67.4-38.9,2.2-1.3,4.5-2.7,6.6-3.9l.2.3h0Z"/>
              <path class="cls-1" d="M161.9,510.5c-1.1,0-2.2-.1-3.1-.6-1.7-.9-4-3.2-4-5.5s2.3-4.7,3.9-5.6c1.4-.8,3.1-.7,4.6-.6h78.5c2.9,0,5.8-.4,8.5-1.1,52.2-14.7,107.9-30.4,170.3-48.1,3-.8,5.4-1.8,7.5-3,30.8-17.7,62.7-36.1,97.4-56.2,7.3-4.2,11.1-10.9,10-17.8-.9-6.1-4.4-11-9.5-13.5-5.2-2.5-11.3-2.2-16.8.9-13.8,7.8-27.8,16-41.4,23.8-6.2,3.6-12.4,7.2-18.6,10.8l-12.3,7.1c-6.7,3.9-13.4,7.7-20.1,11.6l-.3.2c-2.1,1.2-4.4,2.6-6.9,1.9-1.4-.4-2.6-1.4-3.5-3.1-2.9-5.3,1.7-7.9,4.2-9.3l.6-.4c14.1-8.2,28.3-16.3,42.4-24.5l25-14.4c1.5-.9,3.1-1.8,4.5-2.7l.7-.4c-1.4-3.1-4.5-5.6-8.5-6.9-5.5-1.8-11.2-.9-15.4,2.4-2.8,2.2-5.6,4.7-8.2,7.2l-.6.6c-2.2,2-4.2,2.9-6.1,2.6s-3.6-1.6-5.2-4.2c-3.1-5.1-7.2-8.3-11.7-9.3s-9.5.3-14.4,3.5c-2,1.3-4.4,2.6-6.6,2-1.3-.4-2.4-1.4-3.1-3-1.1-2.5.7-7.1,2.9-9,10.4-8.6,26.7-7.9,37.2,1.6.9.8,1.6,1.9,2.1,2.8,23.1-14.4,34-13.7,48.7,3.1.6-.4,1.3-.7,1.9-1.1,2.3-1.3,4.6-2.6,7-3.9,14.8-8,32.2-3.4,40.3,10.8,8.1,14.1,3.4,31.6-10.8,39.9-35.6,20.9-68.7,40-101.4,58.4-4.2,2.4-8.9,3.6-13.6,4.7-1.5.4-3.1.8-4.6,1.2-47.5,13.4-103.7,29.3-160,45.1-4,1.1-8.2,1.7-12.2,1.7-20.4.1-41.1,0-61.1,0h-18.3v.3h0ZM161.8,501.6c-.6,0-1.2,0-1.5.2-1.1.6-2.1,2-2.1,2.5s1,1.8,2.2,2.5c.6.3,1.7.2,2.8.2h78.2c3.7,0,7.6-.6,11.2-1.6,56.4-15.8,112.5-31.7,160-45.1,1.5-.4,3.1-.8,4.7-1.2,4.4-1.1,8.9-2.2,12.7-4.4,32.6-18.4,65.8-37.6,101.3-58.4,12.5-7.3,16.7-22.8,9.5-35.1-7.2-12.5-22.5-16.6-35.6-9.5-2.3,1.3-4.6,2.6-6.9,3.9-1.1.6-2.2,1.2-3.2,1.8l-1.3.7-.9-1.1c-14.3-16.9-23.4-17.4-46.6-2.6l-1.4.9-1-1.4c-.3-.4-.5-.8-.8-1.3-.5-.9-1-1.8-1.7-2.3-9.2-8.4-23.6-9-32.6-1.5-1.3,1.1-2.3,4.1-1.9,4.9.2.6.5.9.8,1,.5.1,1.5,0,3.7-1.5,5.7-3.8,11.7-5.2,17.1-4.1,5.5,1.2,10.3,4.9,13.9,10.9.7,1.1,1.7,2.4,2.7,2.5.8.1,1.9-.5,3.3-1.7l.6-.6c2.7-2.5,5.5-5.1,8.4-7.4,5.1-3.9,12-5,18.6-2.9,5.7,1.8,9.9,5.7,11.3,10.5l.4,1.3-3.2,1.9c-1.5.9-3,1.8-4.6,2.7l-25,14.4c-14.1,8.2-28.3,16.3-42.4,24.5l-.7.4c-3.4,1.9-3.8,2.6-2.8,4.5.4.8.9,1.3,1.4,1.4,1,.3,2.7-.7,4.2-1.6l.3-.2c6.7-3.9,13.4-7.8,20.1-11.6l12.3-7.1c6.2-3.6,12.4-7.2,18.6-10.8,13.5-7.9,27.5-16,41.4-23.8,6.5-3.7,13.8-4.1,20-1,6.2,3,10.3,8.9,11.4,16.1,1.3,8.4-3.1,16.3-11.7,21.3-34.7,20.1-66.5,38.5-97.4,56.2-2.3,1.3-5,2.4-8.3,3.3-62.4,17.7-118.2,33.5-170.3,48.1-2.9.8-6.2,1.3-9.4,1.3h-80,.2Z"/>
            </g>
            <g>
              <path class="cls-1" d="M313.9,363.1c-14.2,0-28.4.2-42.6,0-15.5-.2-29.4,4.3-42.1,13-20.6,14.2-41.3,28.2-61.9,42.4-3.9,2.7-7.9,4.1-12.6,3.8-5.3-.3-10.7.3-15.9-.3-1.9-.2-3.5-2.9-5.2-4.5,1.7-1.4,3.4-2.8,5.2-4,.4-.3,1.1-.1,1.7,0,13.5,2.2,24.3-2.9,34.9-10.9,15.8-11.8,32.5-22.3,48.7-33.5,14.3-10,30.1-14.8,47.5-14.8h89.8c15.9,0,23.6,9.3,20.7,25-3.6,19.5-19.5,33.3-39.4,33.7-11.6.3-23.1,0-34.7,0s-6.6-.5-6.5-4.5c0-4,3.4-4.3,6.7-4.3,11.8,0,23.5.2,35.3,0,16.3-.4,30.2-14.3,30.6-30.1.2-7.2-3.3-10.9-10.5-11h-49.7,0Z"/>
              <path class="cls-1" d="M155.8,424.1h-1.3c-2.2-.1-4.5,0-6.7,0s-6.2.1-9.3-.3c-2-.2-3.4-1.8-4.7-3.3-.5-.6-1-1.1-1.5-1.5l-1.6-1.4,3-2.4c1.3-1,2.6-2.1,3.9-3,.9-.7,2.1-.5,2.9-.4,11.3,1.8,21.4-1.3,33.7-10.5,10-7.5,20.5-14.5,30.7-21.4,5.9-4,12-8.1,18-12.2,14.4-10,30.6-15.1,48.2-15.1h90c8.3,0,14.8,2.5,18.7,7.2,3.9,4.7,5.2,11.6,3.7,19.9-3.8,20.6-20.3,34.7-41.1,35.2-7.5.2-15,.1-22.3.1h-12.5c-2.3,0-4.9-.2-6.6-1.9-1.1-1.1-1.6-2.5-1.5-4.3.1-6.1,5.9-6.1,8.4-6h8.4c8.8,0,17.9,0,26.8-.1,15.3-.3,28.5-13.4,28.9-28.4,0-3.1-.6-5.5-2-7s-3.7-2.2-6.8-2.2h-92.2c-14.9-.3-28.4,3.9-41.1,12.7-7.7,5.3-15.4,10.6-23.2,15.9-12.7,8.7-25.8,17.6-38.7,26.6-4.1,2.8-8.1,4.2-12.5,4.2l.3-.4h0ZM151.2,420.5h3.5c4.2.2,7.7-.8,11.5-3.5,12.9-8.9,26-17.9,38.7-26.6,7.7-5.3,15.5-10.6,23.2-15.9,13.4-9.2,27.6-13.5,43.2-13.3,9.8.2,19.8.1,29.5,0h62.7c4.1,0,7.2,1.2,9.3,3.3,2.1,2.2,3.1,5.4,3,9.5-.4,16.9-15.2,31.5-32.3,31.9-9,.2-18.1.2-26.9.1h-8.5c-4.1,0-4.8.8-4.8,2.6s.4,1.7.5,1.8c.8.8,2.8.9,4.2.9h12.4c7.3,0,14.8,0,22.2-.1,19-.4,34.2-13.4,37.7-32.3,1.3-7.2.3-13.1-2.9-17-3.2-3.9-8.8-6-16-6h-90c-17.1,0-32.2,4.7-46.2,14.5-6,4.2-12.1,8.3-18,12.2-10.2,6.8-20.6,13.8-30.6,21.3-9.3,6.9-20.8,13.7-36.2,11.2h-.6c-1.1.8-2.3,1.7-3.4,2.6.1.1.2.2.3.3.8.9,1.9,2.1,2.5,2.2,2.9.3,5.8.3,8.9.2h3.4-.3Z"/>
            </g>
            <g>
              <path class="cls-1" d="M110.4,422.5h-45.5v77.4h15.7c3.2,0,6.5.3,6.4,4.5,0,4.2-3.4,4.3-6.6,4.3h-16v12.9c0,7.6.2,15.2-.2,22.7,0,1.8-2.5,3.5-3.9,5.3-1.5-1.6-3.3-3.1-4.4-5-.6-1-.2-2.6-.2-3.9v-118.2c0-8.3.7-9,9.1-9,15.7,0,31.5.1,47.2,0,5.1,0,7,1.9,7,7v122.2c0,40.7,0,6.7-4.1,6.8-4.4,0-4.5-3.8-4.5-7.1v-119.8h0Z"/>
              <path class="cls-1" d="M60.5,552.3l-1.4-1.5c-.4-.5-.9-.9-1.3-1.4-1.2-1.2-2.4-2.4-3.3-3.9-.7-1.2-.6-2.6-.5-3.8v-119.3c0-9.3,1.5-10.8,10.8-10.8h47.1c3,0,5.2.6,6.7,2.1,1.5,1.4,2.1,3.6,2.1,6.7v122.2c0,3,0,8.5-5.9,8.5s-3.3-.5-4.4-1.6c-1.9-1.9-1.9-5-1.9-7.3v-118.1h-42v73.9h13.9c2.3,0,5,.1,6.7,1.8,1,1.1,1.6,2.6,1.5,4.4,0,6.1-5.7,6-8.4,6h-14.2v17.2c0,5.5,0,11.2-.2,16.8,0,1.9-1.6,3.4-2.9,4.7-.5.5-1,1-1.4,1.5l-1.3,1.7s.3.2.3.2ZM63.1,420.7h49v121.6c0,1.6,0,3.9.9,4.8,0,0,.5.5,1.8.5h0c2,0,2.4-.9,2.4-5v-122.2c0-2.1-.3-3.5-1.1-4.2-.7-.7-2.1-1.1-4.2-1-11.3.1-22.8.1-33.9,0h-13.3c-4.9,0-7.3,2.4-7.3,7.2v121.2c.7,1.1,1.7,2.2,2.8,3.2h0s.2-.2.3-.3c.8-.8,1.8-1.9,1.9-2.5.3-5.5.3-11.1.2-16.5v-20.7h17.9c3.7,0,4.6-.5,4.6-2.6s-.2-1.5-.5-1.9c-.7-.7-2.4-.8-4.1-.8h-17.4v-81,.2h0Z"/>
            </g>
            <g>
              <path class="cls-1" d="M301.8,293.9h48.9c3.3,0,7.7-.8,7.8,4.1.1,4.8-4.1,4.6-7.6,4.6h-99.5c-3.2,0-7.1.3-7.2-4.3-.1-4.7,3.7-4.4,7-4.4h50.6Z"/>
              <path class="cls-1" d="M351.9,304.4h-101c-2.9,0-8.2,0-8.4-6,0-1.9.4-3.4,1.5-4.5,1.7-1.8,4.3-1.7,6.6-1.7h101.3c2.3,0,5-.1,6.8,1.6,1,1,1.6,2.4,1.6,4.3s-.5,3.4-1.5,4.4c-1.8,1.8-4.5,1.9-6.9,1.9h0ZM251.5,300.9h99.9c1.9,0,4,0,4.9-.8.1-.1.6-.6.5-1.9,0-.9-.2-1.5-.6-1.8-.7-.7-2.6-.7-4.3-.6h-101.5c-1.6,0-3.4,0-4.1.7-.3.3-.5,1-.5,1.9,0,2.2,1,2.6,4.6,2.6s.2,0,.3,0h.8Z"/>
            </g>
          </g>
        </g>
      </g>
    </g>
  </g>
</svg>