<?xml version="1.0" encoding="UTF-8"?>
<svg xmlns="http://www.w3.org/2000/svg" version="1.1" viewBox="0 0 600 600">
  <defs>
    <style>
      .cls-1 {
        fill: #002f8e;
      }
    </style>
  </defs>
  <!-- Generator: Adobe Illustrator 28.7.2, SVG Export Plug-In . SVG Version: 1.2.0 Build 154)  -->
  <g>
    <g id="Layer_1">
      <g id="Layer_1-2" data-name="Layer_1">
        <g>
          <path class="cls-1" d="M423.8,46.5c3.3.8,6.7,1.6,10,2.5,54.2,14.7,71.9,81.2,32.3,121.5-27.8,28.2-56,56-84,84s-14.4,14.5-21.7,21.6c-4.4,4.3-6.5,4.4-10.9.1-14-13.8-27.9-27.7-41.7-41.6-3.5-3.5-3.7-7.9-.9-11,3-3.3,7.6-3.2,11.4.5,10.9,10.8,21.7,21.6,32.6,32.5s2.6,2.5,4.2,4c12.6-12.7,25.1-25.3,37.5-37.7,21-21,42.2-41.8,63-63,28.6-29.1,20.1-76.2-16.5-93.2-28.2-13.1-62-1-75.6,27.1-.4.9-.8,1.8-1.2,2.7-1.4,3.3-3.6,5.5-7.4,5.5s-5.9-2.3-7.3-5.6c-5.5-12.5-14.2-22.1-26.3-28.5-24.5-12.7-55-6.2-71.8,15.5-17.4,22.3-16.8,52.9,2.2,73.6,12.8,14,26.7,27,40,40.4,1.3,1.3,2.7,2.5,3.7,4,2.3,3.3,2.1,6.6-.7,9.5-2.8,2.8-6.1,2.9-9.5.8-.7-.4-1.3-1-1.9-1.6-13.9-13.9-28.3-27.3-41.5-41.8-19.4-21.1-24.9-46-15.5-73,9.4-26.9,29.1-42.8,57.3-48,.9-.2,1.8-.6,2.8-.9h16.8c.7.3,1.5.7,2.2.9,19.5,3,35.2,12.5,47.2,28.1.7.9,1.6,1.8,2.6,2.8,10.5-14.9,24.2-24.7,41.5-29.4,3.5-.9,7-1.6,10.5-2.4h16.8-.2Z"/>
          <path class="cls-1" d="M214.7,535.4c12.1-12,23.2-23.1,34-33.9-43.4-43.3-87.1-86.8-130.3-129.9-10.5,10.5-21.6,21.6-33.5,33.4,5.3,5.2,11.3,11,17.2,16.9s3.1,3,4.5,4.6c3.1,3.5,3.3,7.7.5,10.7-3,3.2-7.4,3.3-11-.2-7.3-7.1-14.5-14.4-21.7-21.7-11.2-11.2-11.2-11.4,0-22.6,12.1-12.1,24.3-24.3,36.4-36.4,5.8-5.8,9.1-5.8,14.9.2,1.8,1.9,3.3,4.1,5.6,7,5.5-5.8,9.9-10.6,14.5-15.2,5.3-5.3,8.7-5.3,13.9-.1,4.2,4.2,8.2,8.6,12.4,13.1,4.7-6.4,8.7-12.2,13.2-17.6,16.5-20,36.4-34.8,62.4-40.2,19.2-3.9,37.7-.5,55.9,5.9.2,0,.3.1.5.2,13.6,7,28.1,8.6,43.1,7.6,5.4-.4,10.9,0,16.3,0,17.4,0,24.2,4.1,32.2,20,1.7-.9,3.4-1.8,5.1-2.8,29.7-17.1,59.4-34.3,89.1-51.4,9.5-5.5,19.2-5.8,28.6,0,8.8,5.4,13.6,13.4,13.1,23.9-.5,10-6.1,17.1-13.7,23-18.3,14.3-36.7,28.6-55,43-22.2,17.4-44.6,34.6-66.6,52.2-12.4,9.9-26.2,14.9-42,14.5-8.1-.2-16.2,0-24.3,0s-11.1-2.3-11.2-7.4,3.4-7.5,10.9-7.5c11-.1,22.1,0,33.1-.5,7.9-.4,15-3.7,21.2-8.6,41.7-32.6,83.5-65.2,125.2-97.8,4.9-3.8,8.1-8.4,6.2-14.9-2.4-8.1-11-11.1-18.8-6.6-21.4,12.3-42.8,24.7-64.3,37.1-11.7,6.8-23.5,13.5-35.1,20.3-1.9,1.1-3.6,2.9-4.8,4.7-5.4,8.5-12.9,13.3-22.9,13.3-29.9.2-59.7.1-89.6,0-5.3,0-8.7-3.2-8.6-7.5.1-4.5,3.6-7.3,9.3-7.4h83.7c2.1,0,4.3,0,6.4-.2,6.4-.7,10.5-4.8,10.8-10.8s-3.5-11.6-9.2-13.1c-1.9-.5-3.9-.6-5.9-.7-4.3,0-8.6-.2-12.9,0-19.6.9-38.1-1.4-56.8-8.8-41-16.2-74-1.6-100.6,30.9-4.5,5.5-8.3,11.5-12.6,17.5,1.2,1.4,2.1,2.5,3.1,3.5,15.5,15.5,31,31.1,46.6,46.5,1.7,1.7,4.8,2.9,7.2,3,17.2.3,34.3.1,51.5.2,6,0,9.8,3.7,8.7,8.6-1,4.7-4.4,6.3-8.8,6.3h-39.5c-.2.4-.4.7-.6,1.1,3.8,3.7,7.7,7.4,11.5,11.2,5.9,5.9,5.9,9.1.1,14.9s-9.2,9-14.3,13.9c5.3,5.1,10.1,9.6,14.7,14.2,4.7,4.8,4.8,8.5.1,13.2l-42,42c-4.8,4.8-8.3,4.8-13.1,0-29.4-29.4-58.8-58.8-88.2-88.2-4.1-4.1-4.5-8.5-1.3-11.7,3.4-3.5,7.6-3.1,12,1.4,26.5,26.5,53,53,79.4,79.5,1.4,1.4,2.5,3.1,3.7,4.6l.4-.4ZM249,459.4c-32.1-32.1-64.2-64.2-96-96.1-3.1,3.1-6.5,6.5-9.4,9.5,31.9,31.9,64,64,96,96.1,3.1-3.1,6.4-6.5,9.4-9.6h0Z"/>
          <path class="cls-1" d="M333.4,139.2v-21.1c0-7.7,2.3-9.9,10.1-9.9h25.7c7.3,0,9.8,2.6,9.9,9.8v21.2h21.2c7.4,0,9.6,2.4,9.6,9.9v25.7c0,7.8-2.4,10.2-10.4,10.2h-18.8c-.3,0-.6.2-1.6.5v20.4c0,7.3-2.5,9.9-9.7,9.9h-27.2c-6.1,0-8.7-2.6-8.8-8.8v-22h-19.9c-8.9,0-11.1-2.2-11.2-11.1v-25.2c0-7.1,2.4-9.4,9.6-9.5h21.5ZM394.7,170.1v-16h-21.2c-6.7-.1-9.2-2.7-9.3-9.4v-21.2h-16v20.1c0,7.9-2.5,10.4-10.3,10.5h-20.2v16h20.6c7.4,0,9.8,2.4,9.9,9.7v20.8h16v-21.5c0-6.5,2.5-9,8.9-9h21.6Z"/>
        </g>
      </g>
    </g>
  </g>
</svg>