<?xml version="1.0" encoding="UTF-8"?>
<svg xmlns="http://www.w3.org/2000/svg" version="1.1" viewBox="0 0 600 600">
  <defs>
    <style>
      .cls-1 {
        display: none;
        fill: #b41527;
      }

      .cls-2 {
        fill: #fff;
      }

      .cls-3 {
        fill: #002f8e;
      }
    </style>
  </defs>
  <!-- Generator: Adobe Illustrator 28.7.2, SVG Export Plug-In . SVG Version: 1.2.0 Build 154)  -->
  <g>
    <g id="Layer_1">
      <g>
        <g>
          <path class="cls-3" d="M58.2,213.5c.3-1.7,1.1-3.4.9-5.5-1.5,1.9-1.2,4.3-3,6.2-.9-3.1.7-5.4,1-7.9.2-.4.3-.7.5-1.1.3-.3.5-.7.8-.8,2.2-.6,3.1-1.7,2.1-4-.1-.3.2-.9.3-1.3,1.5-6.1,3.9-11.9,6.4-17.6,9.4-14.5,20-28.1,31.9-40.6,4.6-4.8,9.9-8.9,15.1-13,.6-.5,1.1-.3,1.7-.3,2,0,3.5,1.7,5.8,1.5,1.6-.1.4,1.5.2,2.4-.2.2-.8.3-.4.7.2.3.7,0,.9-.3,1.7-.2,3-1.6,5.1-1.1,1.1.3,1.3-1.8,2-3-1.2.5-2.4,1.1-3.6,1.5-.8.3-1.5.8-2.4.4,1-1.6-2.4-2.6-.6-4.5,1-.9,2-1.7,3.1-2.4.5-.3,1.6-.2,1-1.2-.4-.8-1.1-.4-1.6,0-.6.4-1.2.9-2.3.4,1.2-4.1,5.3-5.5,7.8-8.3,1.9-1.2,3.6-2.6,5.2-4.2,2.7-1.6,5-4,8.1-5,1-.3,2.1-.8,2.9-.2.8.7-.3,1.5-.5,2.2-.1.4-.5,1.2,0,1.2,1.2,0,2.5.8,3.6-.3.9-.9,1.6-1.8,2.5-2.6.6-.6,1.1-1.6,2.3-1.1.8.9.7,1.7,0,2.7-1.5,1.8-2.9,3.7-4.4,5.5-.8,1-1.3,1.8-.2,2.9,1.4,1.3.6,2.8-.6,3.2-2.1.8-3.3,2.5-4.8,3.9-1.6,1.4-3.4,1.9-5.5,1.2-1.2-.4-2.8-.9-3,.7,0,.7,1,2.4,2.8,2.5,4.8.3,8.6-1.6,11.7-5.1-.6-.6-1.8.1-2-.9-.1-.9.9-1.1,1.5-1.5,1.7-1.1,3.3-2.4,4.7-3.9,1.3-.3,2.2.3,2.8,1.3.5.8,1.1.9,1.9.5,1.1-.6.5-1-.1-1.6-.8-.8-.2-1.5.4-2.2,1.5-1.9,3-3.8,4.7-5.9-2,.4-3.4,2.2-5.3,1-.2-1.6.7-3.6-2.2-3.9-1-.1-1-1.5-.2-2.3.9-.8,2-1.4,3.2-1.6.6-.1,1.4-.2,1.2.9,0,.4-.8,1.2.4.9.7-.1,1.7.5,2-.5,1.2-4.3,5.2-4.4,8.1-4.2,2.8.2,4.4-1,6.4-2,2.3-1.2,4.6-2.4,8.1-1.7-3.3,2-6,3.5-8.6,5.1-3.6,2.1-7.1,4.3-7.1,9.2-.9,1.9-4.5,3.3-1,6,0,0,0,.2,0,.3,0,0,0,.1-.1.2v-.2c1.5-.1,2.5-2.9,4.1-1,1.6,2-.5,3.1-1.6,4.4-.1.1-.3.2-.4.4-.3.7-1.8,1-.8,2,.7.8,1.9.7,2.6,0,3.1-3.1,6.5-6,8.1-10.5-2.2-.4-4.4,0-6.2-1.4-.2-1.9.8-3.2,2-4.5,4-4.1,8.4-7.7,13.5-10.4,2-1.1,4.1-1.3,6.2-1.4,1.4-.1,2.2.3,2.2,1.8-.2,3.1,1.3,2.9,3.6,1.5-1.3-.6-2.6-.9-2.6-2.4,0-.7.6-1.3,1.2-1.4,2.7-.3,5.2-.6,7.8,1.2,1.8,1.2,2.7,3.8,5.2,3.8,4.8.1,7.8,3.2,10.8,6.3,1.3,1.3.8,2.3-.7,3-1.4.6-2.7,1.3-4.3,2.1,1.2.6,2,1,3,.9,1.1.2,2.2.5,3.2.7,1.3.3,2.5.6,3.8.9,5.9,1.4,5.9,1.4,2.9,6.8-1.2,2.1-1.9,4.8-4.9,5.3-2-1.2-3.1-3.2-4.8-4.7-1-.9-1.9-2.2-3.6-1.3-1.2.7-2.8,1.2-2.8,2.9,0,1.7,1.4,2.6,2.7,3.3.7.4,1.4.6,2,.9,4,1.8,4.5,3.3,2.3,7.2-.3.6-.7,1.1-1.1,1.7-2.8,1-4.5-2.6-7.4-1.8.7,1.1,1.7,1.8,2.6,2.6.7.6,2,.9,1.5,2.1-.4,1-1.6.7-2.6.7-4.6,0-8.9-1.2-13.2-2.3-.4-.2-.7-.4-1.1-.6-.4-1.9,2-.8,2.3-2.2-3.1-1.7-6.3-2.5-9.8-.9-1.4.6-3.1.8-4.6,1.1-1.2.2-2.6.4-3-1.2-.3-1.5.3-2.8,1.8-3.4,1.8-.7,3.8-1.1,5.7-1.4,3.3-.5,6.3-1.6,8.9-3.7,5.4-4.2,5.4-7.2-.2-9.8-.9-1.4-1.8-2.7-2.7-4.1-1.3-1.8-2.6-3-5.2-1.7-2.1,1-5,.2-6.7,2.5-.8.2-2.7-.2-.9,1.5.7.6,1.4,1.5.6,2.1-2.8,2.2-3.6,5.4-4.9,8.4-.4.9-1.7,1.4-2.6,2.1-.6.4-1.3.7-1.9,1.1-2.1,0-3.8,1.8-6.1,1.4-.6-.1-1.4-.4-1.7.4-.4.9.2,1.3.8,1.8,2.1,1.7,4.9,2.4,6.4,4.9.4.4.9.8,1.3,1.2.5,1.7-.4,2.5-1.9,2.8-4-1.4-7.3,0-10.3,2.8-.8.7-1.1,1-2.5,0-2.5-1.7-.4-3.1-.4-5.3-3,3.9-6.8,5-10.6,6-.6,0-1.9,0-1.6.5,1.2,2.8-1.4,3-2.6,4-5,4.1-10.4,7.7-14,13.2-1.6.5-1.2-.8-1.2-1.5,0-1.4,0-2.8-.4-4.2-.3-1.7-1.6-2.3-3-2.4-1.5-.2-3.1,0-3.9,1.6-.4.8-1.1,1.9-.1,2.5.7.4,2,.7,2.5-.7.3-.8.9-1,1.5-.4.6.6.3,1.3-.3,1.7-.8.6-1.7,1.2-2.5,1.8-1.9,1.6-2.3,4.5-1,6.1.8.9,6.3,1,7.2,0,1.6-1.7,3.6-1.4,4.3.8.3.9.4,1.8.5,2.8.3,2,.9,2.9,3.1,1.8,2.6-1.4,5-.8,7.4.9,1.3,1,2.4,2.4,4.2,2.7,1.7.5,3.4,0,5,0,1.6,0,3.2.6,4.4,1.5,1.2.9-.5,1.7-.7,2.6,0,0,0,.2,0,.3.4,3.5-.7,7.8,4.5,8.8.3,0,.7.3.9.6,1.3,1.6,2.2.7,3-.5,1.4-2.3,1.4-4.8,1.2-7.4-.2-2.8.1-5.3,1.9-7.6,1.4-1.9,4.1-1.8,5.5-3.6,2.1-2.2,2.4-5,2.1-7.9-.1-.4-.2-1-.4-1.3-1.8-2.5-2.5-5,.4-7.3.3-.2.5-.9.3-1.2-1.2-2.5.3-4.7.7-7,.2-2.9,2-3.8,4.6-3.9,2,0,3.9,0,5.8-.5,3.5-.8,6.4.4,9,2.5,1.5,2.4,4.4-.2,6.1,1.8-1.4,1.6-2,3.5-2.4,5.6-.1.7-.3,1.5.4,1.8,2,1,4,2.6,6.3,2,2.4-.6,3.4-3.5,6-4,0,0,0-.5,0-.8,0-1.1.5-2,1-2.9,1.6-2.7,2.9-2.8,4.8-.2.9,1.2,1.7,2.5,2.5,3.7.7,1.3,1.4,2.7,2.1,4,1,1.8,2.3,3.5.5,5.6-.6.7,0,1.2.6,1.5.9.4,1.7.7,2.6,1.1.1,2.3,1.2,3,3.6,2.7,3-.4,5.6,1.1,7.7,3.6-2.6,1.4-5.6,1.6-7.7,3.8,3.5-1.4,6.9-3,10.7-1.6,1,.4,2.6.9,2.2,1.7-.8,2.3.4,4.8-1,6.9-.2.2-.8.3-.5.6.2.3.6,0,.8-.3,2.4,0,1.3,1.4,1,2.4-.5,1.6-2.6,2.3-2.3,4.3,1.2,1.2,1,4.3,4,2.7,3.5-.7,5,1.8,6.3,4.3,1.6,2.8,2.9,5.7,1,9-.3.5-.8,1-1.3,1.4-.8.7-1.9.6-2-.5-.3-3-2.3-2.2-4.1-2.1-4.9-1.5-9.9-1.6-15-2-1,0-2.5.2-3-1-.5-1.3.8-2,1.6-2.7,3.1-2.7,5.1-6.2,7.1-9.6.9-1.1,1.8-2.1,2.7-3.2.3-.2.5-.5.3-.8.2,0,.5.2.4-.3-.1.1-.2.2-.3.3-.2.2-.4.3-.6.5-1.7.8-3.6,1.6-5,2.9-4.1,1.4-7.9,3.5-12.4,3.5-3.3-.5-6.2.9-9.1,2.1h0c-7.7,1.6-13.1,6.7-18.2,12.2-.6.3-1.2.5-1.2,1.4.8,0,1.3-.4,1.7-.9,2.6-1.5,5.1-3,7.7-4.5,2.4-1.4,4.8-2.9,7.4-3.9,1.1-.4,2-.3,2.8.6.8,1,0,1.8-.4,2.6-.8,1.7-2.9,2-4.6,3.2,2.7.5,2.6,3.2,4.1,4.7,1.1-2.3,1.7-2.6,2-1.6.6,2.7,2.6,2.5,4.6,2.4.8,0,1.7-.2,1.3,1-.7,2.2.9,1.3,1.8,1.4,1.7-1.2,1.5-3.5,2.9-4.9.6-.6,1.1-1.5,2-1.2.9.3.7,1.4.7,2.2.2,1.6-.7,3-1.2,4.5-1.5,2.1-3.3,3.8-5.2,5.6-3.7,2.7-7.7,5.1-12.1,6.5-1.4.4-3.3,1.5-4.1.2-1-1.7,1-2.7,2.2-3.7,2-1.6,4.2-3.1,6.4-4.7-1.8-1.2-3.2-1-4.8,0-4.2,2.5-8.5,4.7-12.8,7.1-3,1.9-4.9,4.4-5.2,8-.2,1.9-.5,3.8-.8,5.8-4.2,1.1-7.8,3.4-11.6,5.5-1.6.9-1.8,2.7-2.3,4.4-.5,1.8-.7,3.7-2.2,5-.2-.8-.5-1.6-1.2-2.2-.5.9-.3,1.6-.2,2.2,0,1.3-.1,2.6-.2,3.9-.6,1.8-.6,3.8-2.4,5-.4,2-.8,3.8-.1,6.1.4,1.1.6,3.6-1,5.2-2.6,2.5-5.7,4.2-8.5,6.4-2.9,2.3-6.1,4.4-6.9,8.4-1.2,1.5-1.1,3.3-.8,5.1.4,3,2.1,5.6,3.5,8.2,1.7,3.3,3.6,6.5,3.4,10.5-.1.4-.3.9-.4,1.3-.7,1.8-1.3,4.4-3.4,4.4-1.8,0-3.1-2.2-4-4-.3-.6-.6-1.2-.9-1.8-.6-2.2-.6-4.6-1.6-6.8-.7-3.9-3-6.8-5.4-6.6-5.8.6-11.6,1-17.3,2.1-.7.1-1.8,0-1.8.9,0,.9,1.1.9,1.6,1.3-2.5,1.4-5.2,2.1-8.1,1.6-2.7-.4-5.5-.7-7.7,1.4-2.1,1.9-4.1,3.8-5.7,6.1-.9,1.1-1.8,2.2-2.6,3.3-.9,1.3-1.6,2.9-.4,4.2,3.1,3.3,2.2,6.6.7,10.1-1,2.4-1.8,4.8,0,7.2,2.4,6.5,7.2,10.5,13.1,13.6.6.3,1.2.4,1.9.2,4-.8,6.4-3.4,6.9-7.6.7-2.3,1.5-4.5,2.2-6.8.8-.8,1.4-1.7,2.3-2.4,3.2-2.6,8.5-1.1,9.2,2.5-.6,2.9-1.4,5.8-2.6,8.5-.3.7-.9,1.5-.4,2.4,1,2,.7,4,0,6-.8,2.1,0,2.4,1.8,2.2,4-.5,7.9-1.3,12-.8,3.7.3,4.2,3.4,5.3,6,.3,3,.7,5.9.3,8.9-.5,4,1.1,5.9,5.3,6.2,4.6.3,9.1.3,13.7.4,1.1.2,2.3.3,3.3.7,1.8.8,2.4.2,2.7-1.6.7-3.7,2.7-6.8,5.7-9.1,3.6-2.7,7.9-3.4,12.1-4.1,8.3-.3,16.5.9,24.8,1.7,7,.4,12.6,3.4,17.5,8.3,1.9,2,4,3.9,6.8,4.7,3.4,1.9,7.1,2.1,10.8,2.7,5.5,1,10.2,3.5,14.2,7.4,4,3.9,8.8,7,11,12.5.5,1.2,1.7,2.1,3,2.4,3.4.8,6.8,1.4,10.1,2.1,1,.3,2,.6,3,.9,5.4,1.2,10.9,2.2,15.6,5.4,1.9,1.5,3.8,2.9,6.2,3.4,0,0,0,0,0,0l1.2.5c1.1.9,2.2,0,3.2,0,1.5,0,3.5.1,3.3,1.7-.4,2.9.2,5.6.8,8.4.1.6-.5,1.4-.8,2.1-1.2,2.8-3.3,5-5,7.4-1.4,1.1-2.7,2.2-4.1,3.3-1.6.6-3.6.8-2.6,3.5.3.9-.4,1.8-.9,2.5-.7.9-1.3,1.9-1.2,3.1.6,4.2,0,8.4.2,12.6,0,2.6-.7,4.3-3.9,3.8-1.7-.3-2.9,1.1-3.5,2.4-2,4.7-5.4,7.9-10.1,9.9-.6.2-1,.8-1.5,1.2-2.6,1.6-3,4.2-3.3,6.9-1.5,4.4-2.6,9-4.6,13.3-1.9,4.3-4.3,8.1-8.2,10.9-.7.9-3.2,0-2.4,2.2,1.2,3.6-.2,6.3-3.9,6.1-3.2-.2-2.7,2.8-4.3,4-1.2.9.9,1.9,1.2,2.9.4,1.2,2.7,1.9,1.1,3.7-.8,0-1.6-.1-2.9-.2,1.7,4.4,2.7,8.8,5.4,12.4.9,1.2,1.3,2.2.8,3.6-.9,2.8.3,4.7,2.6,6.2,3.4,2.2,7,3.9,10.6,5.8,1,.5,2.2.9,3.2,2.2-7.7,1.3-13.8-2.1-20.1-4.9-7.6-5.4-13.9-11.9-19.2-19.5-1.5-2.5-2.9-4.9-4.4-7.4-2.5-5.4-5-10.9-7.5-16.3-2.9-8.2-5.6-16.4-8-24.8-.7-3-1.3-6-2.1-8.9-1.3-4.4-2.8-8.9-6.7-11.8-1.7-2.6-4.7-3.1-7.2-4.3-6.6-2.8-12.7-6.2-17.5-11.6-4.1-4.2-8.2-8.3-12.4-12.5-2.7-3.2-5.5-6.4-8.2-9.6-1.9-2.2-3-4.7-2.6-7.7.2-1.9.4-3.9.5-5.8,1.2-5.5,3.1-10.9,5.4-16.1,1.4-3.2-.6-6.3-1.8-9.3-1.2-2.5-1.5-5.7-5.2-6.2-1.8-.3-2.8,1.1-3.5,2.3-1.1,1.7-2.5,1.9-4.3,1.8-5.3-.5-9.6-2.9-13.6-6.1-.9-.7-1.8-1.4-2.6-2.1-1.5-1.3-3-2.5-4.5-3.8-3.9-3.4-8.2-6.2-13.5-7-2.4-.4-4.8-.7-7.1-1.4-1.2-1-2.4-1.9-4-2.2-2.3-1.6-4.6-3.2-7.6-3-4.5.4-8.9.1-13.3-.9-3.7-1.1-7.5-1.5-11.1-3.1-3.3-1.4-5.3-3.6-5.8-7-.7-4.4-2.8-7.8-6.3-10.6-5-4-8.4-9.4-12-14.5-1.2-1.7-1.6-3.8-2-5.8-.5-2.9-1.8-5.3-4.5-7.5,1.9,7.3,3.5,14.1,7.8,20,1.8,2.4,3.6,4.8,3.5,8.1-1.1,2.8-2.1.9-3.2,0-3.1-4.2-6.2-8.4-9.3-12.6-1.1-1.4-1.5-2.7,1.4-2.6-4.2-7.3-7.1-15-11.6-21.8-1.5-2.2-1.7-4.9-2.1-7.5-.2-1.5-.4-3-.7-4.4,0-7.9-.1-15.8.5-23.7.4-5.8,1.2-11.5,2.9-17.2,2.2.6,3-.1,2.8-2.4-.2-2.3-.1-4.6-.1-6.9,0-1.4.7-2.5,1.3-3.7,1,.6.6,1.7.7,2.6M166.4,132.8l-.4.3c0,0,.2.1.3.2,0-.2,0-.3,0-.5.1,0,.2-.1.3-.2,0,0-.1,0-.2,0,0,0,0,.2-.1.2ZM173.2,99c-.4.2-.8.3-1.2.5,0,0,0,.2,0,.2,0,0,0-.2,0-.3.4-.2.8-.3,1.2-.5,0,0,.1,0,.2-.1,0,0,0,0,0-.1,0,.1-.1.2-.2.3ZM152.9,124.4c-.4-.2-.7,0-.8.4,0,0,.1.3.2.3.4,0,.5-.4.5-.7.1-.1.6-.1.1-.4,0,.2,0,.3,0,.5ZM154,122.6c1.9-.3,3-1.7,4.1-3.1-1.3,1.1-3.8.6-4.1,3.1-.1,0-.2.2-.4.3.1,0,.2,0,.3.1,0-.1,0-.3,0-.4ZM161.2,130.1c2.9.7,5.7.6,8.2-1-2.6.9-5.5.1-8.2,1ZM247.9,176.4h0c0,.1.2.2.2.2v-.2Z"/>
          <path class="cls-3" d="M302.4,59.6c1.7,2.1,4.1.3,6,1.3-1.3,2.1,0,3.3,1.8,4.2,1.1.5,2.3.6,3.5,1,1.7.5,3.6.6,4.1,3,.1.8,1.7,1.4,2.6,1.9,2,1.2,3.9,2.6,6.1,3.3.9.7,1.8,1.3,2.7,2,1.1.8,1.6,1.7.6,2.8-1.5,1.6-.7,3.1,0,4.6,0,1.8,1,3.2,2.3,4.3,1,.9,2,1.7,3,2.6,3.2,2.9,3,4.2-.9,6-2.7,1.2-5.5,2.4-8.2,3.6-3.2.6-6.3,1.6-9.3,2.6-2.6.9-4.1,2.4-4,5.2-.5,1.7-2,2.3-3.5,2.8-2.5.8-4.9,1.6-7.4,2.4-1.1.3-2.1.6-3.2.9-1.5.4-2.5,1.3-2.4,2.9.4,5.5-1.6,10.6-2.8,15.8-1.9,4.2-2.2,4.4-6.8,3.7-3.2-.5-6.4-.9-9.6-1.4-2-.5-3.5-1.7-5.1-2.9-5-5.5-9.3-11.5-13.1-17.7-1.3-2-2.2-4.1-2.1-6.5.7-3.3,2.8-5.3,5.8-6.6,1.4-.2,2.2-.9,2.2-2.4,0-1.3-.6-2.1-1.7-2.7-1.3-.6-2.5-.4-4.1.8,3.2.2,4.2,1.4,3.3,4-.7.2-1.4.4-2.2.6-3.1.6-3.8-.2-3-3.1,0-.3,0-.4,0-.7-1.6-3.1-3.8-6.1-1.9-10,.3-.6,0-1.7-.3-2.4-2-6.2-4.8-8.1-11.2-7.9-1.6,0-3.2,0-4.8.2-3.2.6-6.3.4-9.3-.8-.7-1-.8-2.2-1.1-3.3-3.1.9-6.1,2-8.9,3.4-2-2.1-5-2.1-6.3,0-.5.8-.9,1.9,0,2.5.6.5,1.6.7,2.4-.4,1.4-2.1,1.7-.6,1.9.7-2,1.6-4.1,2.9-6.9,2.6-.4-1.5-1.4-.8-2.2-.5-2.3.8-4.6,1.7-7.1,1.8-.6,0-1.8.5-1.8-.7,0-1.6-.9-.9-1.4-.8-3.4.7-6.8.3-10.6.2,3.4-3.5,7.4-4.7,11.6-4.7,1.5,0,2.8,1.8,4.7,1.8,1.2,0,1.1.5,1.9-1.1-2,.7-2.5-2.6-4.5-1.7-.1,0,0-.8.4-1.1.7-.5,1.5-.8,2.2-1.2,2.7-.2,5.1-1.2,7.5-2.3,5.6-2.4,11.6-3.6,17.3-5.5,8-1.5,15.9-3.8,24.1-4.2,4.3.6,8.4-.6,12.5-1.3,9.2-1.5,18.4-2.3,27.7-1.4,2.6,1.4,5.2.5,7.9,0,.6,0,1.3.3,1.8-.4,0,0,0,0,0,0ZM230.4,71.3c0,.3.2.6.3.8,4.2-1.3,8.4-2.6,12.7-3.8-.1-.3-.2-.7-.3-1-4.3.9-8.2,3.4-12.6,4Z"/>
          <path class="cls-3" d="M350.9,119.9c-1.6,0-3.5.4-4-1.9,0-.2-.6-.4-1-.4-2.2,0-4.2.5-4.1-3,0-1.3-2.2-1.2-3.7-1.2-1,0-2.4.6-2.8-.4-.6-1.5,1.4-1.4,2-2.4,0-1-1.9-1.2-1.5-2.6,2.9-1.4,5.3.2,7.7,1.2,1.2,1.6,2.3,3.3,4.6,4.3-.2-2.1,0-3.4,2.6-3.7,1.1-.1,2.4-1.4,3.9-2,5.4-2.2,10.3,0,15.4.8,3.6,2.9,3.2,5.9-.6,8.1-4.2,2.5-8.5,4.2-13.5,3.1-1.6-.4-3.3-.3-5,0Z"/>
          <path class="cls-3" d="M211.4,85.4c-7.7,4.4-16,6.4-24.9,5.9-.8,0-1.2.4-1.7.7-.8.5-1.7,1.1-2.6.8-2.2-.7-4,.1-5.9.8-.8.3-1.9.9-1.6-.9.3-1.5-.8-1.6-1.4-.7-2.4,4.2-7.2,3.9-10.8,5.8-2.5,1.3-5.1,2.3-7.4,4-.9,0-2.5,1.4-2.6,0-.1-1-1.7-3,.8-3.8.7-.2,1.2-.8,1.8-1.3,5.5-2.2,9.8-7.2,16.3-7.2,1.5-3.1,5.3-2.9,7.4-5.1.2,0,.5-.2.7-.3,2.1-.5,4-2.1,6.6-2-.8,1.7-2.9,2-3,3.8,1.2.8,2.6-.6,3.9,0,.3,1.2-1.1,1.2-1.2,2.1,2,1.9,3.4.3,4.8-.8-.5-1.2-2.2.4-2.1-1.2,0-1,.9-1.9,2-2.1,2.1-.3,4.2-.6,6.4-.6,1.2,0,1.6.9.7,1.9-.4.5-1.3.4-1.5,1.4,4.9-1,9.3-3.7,14.3-3.3,1,.5,1.5,1.2,1,2.3ZM174,90.5c2.1-2.1,4.5-3.2,7.5-2.9-3-1.3-6.2,0-7.5,2.9Z"/>
          <path class="cls-3" d="M400,153.7c4.3-2.2,8.6-.9,11.4,3.4-.7,2.3-.4,4.4.8,6.6,1.7,3.2,1.1,4.1-2.3,5.5-1.8.8-3.3,2.1-5.3,2.6-1.8.5-3.5.7-5.2,0-1.2-2-.4-4,.2-5.9.4-1.3.8-2.2-1-3-2.1-.9-2-2.5-.1-5.1,2.9-.4.9-2.7,1.5-4.1Z"/>
          <path class="cls-3" d="M179.4,334.8c-2.6-.7-5.4-.4-7.9-1.6-1.1-.5-2.5-.9-.7-2.4,1.3-1.1-.2-1.6-.8-2.3-.5-3-1.9-4.9-5.1-5.3-1.3-.2-2.9-.5-3.5-1.6-1.5-2.9-3.1-1.5-4.9-.7-1.2.5-2.4.9-3.6,1.4-.7-.2-1.7.1-1.9-.8-.3-1,.7-1.4,1.3-1.8,1-.7,2-1.3,3-2,3.5-1.3,7.1-1.5,10.7-.6,2,.5,3.7,1.6,5.1,3.2,3.2,3.7,6.3,7.4,9.6,11.1,1.8,2,1.1,3-1.2,3.4Z"/>
          <path class="cls-3" d="M178.9,341.8c-.3-.6-1.6-.6-1.2-1.6.3-.7,1.2-.3,1.8-.5,1.1.2,2.2.5,3.3.6.9,0,2,.7,2.5-.3.5-.9-.3-1.8-.7-2.6-.3-.7-1.6-1.1-1-2.1.6-1,1.7-.6,2.6-.5,4.6.3,9.1.8,13.5,2.3,2.3.8,3.6,3.1,3.3,5.5-.2,1.3-1.2,1.2-2.1,1.2-2.6-.2-5.2-.3-7.8-.6-1.6-.2-2.8,0-3.8,1.5-1.4,2-2.6,1.8-4-.3-1.5-2.2-4.1-1.8-6.3-2.5Z"/>
          <path class="cls-3" d="M227.8,190.7c-2.8.8-5.3-.3-7.6-1.7-1.1-.7-1.7-1.4-.7-2.7,0,0,0,0,0,0,3.1,0,6.1.8,9,1.7,1.1,1.2.2,1.9-.7,2.6Z"/>
          <path class="cls-3" d="M56.1,218.6c.2-.7-.2-1.7.8-2.3,1.4,1.6.9,2.9-.6,4,0-.6-.1-1.1-.2-1.7Z"/>
          <path class="cls-3" d="M435.2,183c0-.2.2-.5.3-.7.3.3.6.6.9.9-.2.2-.4.4-.6.6-.2-.2-.4-.5-.6-.7Z"/>
          <path class="cls-3" d="M211.3,347.8c-.6,0-1.2,0-1.7-.1-1.4-.4-2.9-1-2.6-2.8.3-1.9,2-1.2,3.2-1.1,1,.1,2,.5,3,.8,1,.4,2.6.4,2.4,1.8-.2,1.3-1.8,1-2.9,1.2-.5,0-.9,0-1.4,0Z"/>
          <path class="cls-3" d="M168.2,341.6c-1.8,0-3.4-.1-3.5-2.4,0-1.4.5-2.3,1.9-2.1,1.8.3,3.7.8,4.1,2.8.3,1.8-1.5,1.5-2.5,1.6Z"/>
          <path class="cls-3" d="M465.6,234.4c-.6,1.2-1.3,2.3-2.7,2.1-1.4-.2-3.4-.5-3.4-2.3,0-1.7,1.9-1.4,3.2-1.4,1.2,0,2.5,0,2.9,1.6Z"/>
          <path class="cls-3" d="M180.3,138.8c1.2,0,3.2-1.9,3.3,1.2-1.3,1.3-2.3,3.3-4.7,2.7-.3-1.5-.3-3,1.3-3.8Z"/>
          <path class="cls-3" d="M176.8,138.1c-.4,1.1-1.3,1.8-2.3,2.3-1.5.8-2.8,2.3-4.8,1.7-.7-.2-.7-1.1-.5-1.7.5-2.4,2.7-2.3,4.3-2.9.7-.3,1.4-.4,2.2-.4.6,0,1,.4,1.1,1Z"/>
          <path class="cls-3" d="M198.8,119.1c-1.4-.7-2.6-2.1-2.3-3.7.4-2.3,2.6-2.7,4.5-3,1.2-.2,1.6.6,1.5,1.7-.1,1.9-2.4,5-3.7,4.9Z"/>
          <path class="cls-3" d="M476.8,231.1c3-2.8,4.1-2.9,6.2-.7-.2,1.9,0,3.7.6,5.5.7,2.3-.4,4.1-2.6,4.8-.8.2-1.9.3-2-.4-.5-3.1-4.2-5.4-2.2-9.1Z"/>
          <path class="cls-3" d="M535.3,274.5c-.2.8.3,2.5-1.5,2.5-2.1,0-2.7-1.7-3-3.4-.1-.8.2-2.2,1.1-1.7,1.1.6,3.6-.3,3.3,2.6Z"/>
          <path class="cls-3" d="M480.5,226c-.2.8.3,1.9-1,2.1-1,.1-3.2-2.9-2.9-4,.2-.8.6-1.6.8-2.4.3-1-.9-2.9.9-3,1.4,0,1.2,1.9,1.5,3,.4,1.4.5,2.9.8,4.3Z"/>
          <path class="cls-3" d="M471,302.8c0,1.3.6,2.5-.7,3.2-.2,0-.8-.2-.9-.4-.4-1.3.1-2.1,1.6-2.7Z"/>
          <path class="cls-3" d="M68.9,173.4s80.9-116,207.7-116,202.8,76.3,230.2,138.1c13.4,42.9,6,76.2,10.6,57.6,4.1-16.7,17.8,16.4,18.6,15s-5.3-25.3-11.3-47c-9.7-35.6-28.3-68.3-54.4-94.4-36.1-36.1-94.8-76.6-181.2-76.6-159.3,0-220.2,123.3-220.2,123.3Z"/>
          <path class="cls-3" d="M390.3,427.2"/>
          <path class="cls-3" d="M361.6,336.3c0,1.3.6,2.5-.7,3.2-.2,0-.8-.2-.9-.4"/>
          <path class="cls-1" d="M533.5,228.6c2.1,6.5,9.6,49.3,9.7,51,1.5,21.3.3,43-4,65.1-7.5,38.5-21.1,72.9-43.2,101.4-12.5,16.2-26.7,27.5-42.3,33.9-2.5,1-5,2.1-7.5,3.1-.9.4-1.9.7-2.8,1-5,1-10,2.3-14.9,3.1-15.3,2.3-30.2,1.6-44.5-2.2-.6-.2-1.5,0-1.5-1.1,0-1.3,1-1.5,1.7-2,5.8-4,11.6-8.1,16.8-14.1,8.4-9.7,14.2-21.7,18.6-35.1,6.3-19.3,9.6-39,11.9-58.9,1.8-15.3,2.2-30.5,4.1-45.8,2.3-18.6,5.7-36.9,12.8-54.4,8.5-21.2,20.5-36.1,36.6-43.3,12.6-5.7,24.7-5.5,36.6-3,1.4.3,1.9,1.2,1.8,3.4-1.2,23.8-3.6,47.5-8.3,71.4-4.7,23.9-11.4,47-22.3,68.3-4.7,9.1-10.1,17.3-16.2,24.5-1.3,1.5-2.8,2.7-3.6,3.3,6-10.1,11.2-22.1,15.7-34.5,9.1-24.7,14.7-50.2,17.5-76.3,1.4-12.3,2.1-24.6,2.2-36.8,0-2.5-.6-3.4-2.2-3.5"/>
        </g>
        <g>
          <path class="cls-3" d="M324,544c36.4-18.4,73.2-34.6,87.2-76,13.8-40.7,15.1-133.5,53.4-176.5,38.3-43.1,61.9-51,61.9-51,10.5-3.5,23.7,86.2,19.2,119-14.7,105.7-118.7,185.7-221.8,184.6,0,0,0,0,0,0Z"/>
          <path class="cls-2" d="M458,449.4s89.8-103.7,66.6-203.5l-9.7,12.5s7.9,97.9-56.8,191Z"/>
        </g>
      </g>
    </g>
  </g>
</svg>