<?xml version="1.0" encoding="UTF-8"?>
<svg xmlns="http://www.w3.org/2000/svg" version="1.1" viewBox="0 0 600 600">
  <defs>
    <style>
      .cls-1 {
        fill: #b41527;
      }
    </style>
  </defs>
  <!-- Generator: Adobe Illustrator 28.7.2, SVG Export Plug-In . SVG Version: 1.2.0 Build 154)  -->
  <g>
    <g id="Layer_1">
      <g id="Layer_1-2" data-name="Layer_1">
        <path class="cls-1" d="M236.2,46.3c-3.3-19.4-1.3-20.8,17.6-18.9,16.1,1.7,32.4.9,48.5,2.3,26.1,2.3,51.1,7.5,66,32.9,1.2,2,4.4,3.3,6.8,4.4,20.8,8.7,29.5,25.5,30.3,46.9.9,23.9-7.5,45.7-16.3,67.5-2.8,6.7-4.9,14.4-4.6,21.5,1.7,36.7-8.1,67.6-38.6,90.9-2.9,2.2-1.2,11.9.3,17.7.7,2.6,6,5.5,9.3,5.7,22.9.9,46-.7,68.7,1.7,63,6.8,109.4,58.8,110.2,122.2.4,35.6,0,71.1,0,106.7s-1.3,19.6-19.4,19.6H116.3c-15.8,0-31.6-.3-47.5,0-11.2.3-15.5-4.5-15.4-15.7.4-36.7-.1-73.6.3-110.3.9-68.4,54.1-122.4,122.6-124.1,18.1-.4,36.4.3,54.6-.4,3.9-.1,9.9-3.2,11.2-6.4,2.3-6.1,7.5-12.8-1.7-19.6-25.3-18.6-37.3-44.6-36.4-75.9.4-16.4-2.9-31.4-8.4-47-6.1-17.1-10.2-36.1-9.7-54.1.7-32.9,20.8-54.3,50.5-67.9v.4ZM446,546.6c.1-4.1.4-6.8.4-9.6v-75.9c0-7.3,1.2-14.4,10.3-14.2,9.1,0,10,7.3,10,14.5v84.9h47.6c0-38,1.6-75.2-.4-112.2-2.6-49.8-44.3-91.4-92.6-96.1-7.7-.7-12.3.7-15.4,8.7-4.9,12.9-11,25.4-16.7,38-8.9,20-8.9,19.9-28.6,11.5-3.6-1.5-8.9-2.8-11.8-1.3-16.5,8.3-20,15.4-17.7,33.5.4,3.2.6,6.2.9,9.4,3.9,36.1,7.8,72.1,11.9,108.9h102ZM244.1,546.8c4.6-42.1,9.1-83.3,13.8-124.5.1-2,.7-3.9.4-6-.3-2.6-.3-5.7-1.7-7.7-9.1-13.1-20.9-16.3-35.7-9.6-9.1,4.1-14.9,2.2-18.9-7.1-5.8-13.8-13.2-27.1-17.9-41.4-4.2-12.9-11.9-14.2-23.4-12-50.4,9.4-86.7,52.3-87.1,103.8-.3,30,0,60.1,0,90.1v13.6h47.5c.1-3.3.4-5.7.4-8v-78.2c0-7,1.7-13.2,10.2-13.2s10,6.2,10,13.2v86.5h102.5v.4ZM363.5,192.2h1.7c-.9-15.4-.9-30.9-2.9-46-3.9-29.8-19-39.9-48-31.5-13.8,3.9-26,4.6-39.9.3-29.5-9.1-45.7,1.2-48.5,31.6-2.5,26.7-2.9,53.7-1,80.4,2.5,35.9,33.1,62.1,68.8,62.4,35.6.3,65.7-26,69.7-61.5,1.3-11.8.1-23.7.1-35.6h0ZM207.2,132.5c.9-1.9,1.6-3.2,2.2-4.6,12-30.2,30.6-41.5,62.1-34.1,16,3.8,30.3,3,46-.3,31.2-6.7,51.1,5.5,61.5,35.3.7,2.2,2,4.1,4.2,8.4.9-6.4,1.5-9.9,1.7-13.4,2.3-22.8-3.5-31.9-25-40.2-3-1.2-6.4-3.9-7.5-6.7-5.7-14.7-17.4-21.5-31.6-23.7-17.1-2.6-34.4-3.3-51.7-4.6-2-.1-6,.9-6.1,1.9-1.9,12-12.8,11.6-20.5,15.1-28.9,12.8-43.3,39.3-35.4,67.2v-.3ZM278.3,416.8c-4.6,43.7-9.3,86.4-13.9,129.6h59.4c-4.8-43.7-9.3-86.4-14.1-129.6h-31.4,0ZM217.8,378.5c18.7-8.6,35.6-16.3,52.7-24.1-20.3-22.1-44.8-16.7-70.7-16.1,6.4,14.4,11.9,26.7,18,40.3h0ZM317.4,354.4c17.7,8,35,15.8,53,23.9,6.1-13.9,11.6-26.3,17.9-40.3-26-.1-50.9-5.5-70.8,16.4ZM322.7,307.6h-58.1c-6.4,10.9-2.2,16.4,7.5,23.5,15.4,11,27.7,11.5,42.8,0,13.2-10,14.1-8.9,7.5-23.4h.1ZM258.9,383.5c18.4,18.9,57.5,18,69.4-.4-22.8-19.4-46-18.6-69.4.4Z"/>
      </g>
    </g>
  </g>
</svg>